<svg version="1.1" id="Layer_1" xmlns="http://www.w3.org/2000/svg" xmlns:xlink="http://www.w3.org/1999/xlink" x="0px" y="0px"
	 width="100%" viewBox="0 0 416 192" enable-background="new 0 0 416 192" xml:space="preserve">
<path fill="#FFFFFF" opacity="1.000000" stroke="none" 
	d="
M237.008652,77.240105 
	C240.429657,76.536064 243.488831,76.353523 248.163971,77.575203 
	C241.057388,83.874496 234.804596,89.416992 227.577591,95.823029 
	C235.409653,102.863083 241.905518,108.702049 248.401367,114.541016 
	C248.028885,115.148430 247.656403,115.755852 247.283920,116.363266 
	C243.322830,117.228210 239.274597,118.204430 235.763580,114.629578 
	C231.807312,110.601372 228.024338,106.402977 223.771881,101.857361 
	C219.074417,106.294792 214.859772,109.974609 211.007980,114.001488 
	C207.327408,117.849396 203.250000,117.424416 197.494568,116.067299 
	C201.876938,111.670944 205.516663,107.933830 209.249634,104.292313 
	C217.372620,96.368370 217.388168,96.392181 209.351257,88.357689 
	C205.981705,84.989182 202.632507,81.600349 198.619202,77.561775 
	C204.136398,76.278717 208.212448,75.718422 211.758667,79.759323 
	C214.274734,82.626366 217.278549,85.059319 219.940567,87.806282 
	C222.000565,89.932014 223.745438,89.925362 225.845642,87.810020 
	C229.360718,84.269615 233.048660,80.900841 237.008652,77.240105 
z"/>
<path fill="#FFFFFF" opacity="1.000000" stroke="none" 
	d="
M146.178284,92.826431 
	C143.709061,90.431519 141.487762,88.287361 139.030777,85.915688 
	C137.879990,88.798683 138.417969,91.136856 138.393921,93.404968 
	C138.364868,96.147148 137.219421,97.286186 134.474899,97.289604 
	C131.668365,97.293098 130.602585,96.018242 130.669434,93.331268 
	C130.748154,90.167587 130.494232,86.986893 130.725815,83.838669 
	C130.896118,81.523743 129.316742,78.013107 132.273178,77.183929 
	C135.768280,76.203682 139.873260,75.425240 143.155350,78.456429 
	C145.112686,80.264145 146.994156,82.154701 148.892593,84.025421 
	C155.418686,90.456223 161.916748,96.915688 168.479935,103.308357 
	C169.501556,104.303444 170.322205,105.743767 172.179916,105.738441 
	C173.812775,104.220085 173.536240,102.128296 173.556442,100.216629 
	C173.584610,97.551788 174.091705,95.743454 177.384201,95.729355 
	C181.012344,95.713821 181.385178,97.840172 181.323807,100.623398 
	C181.257690,103.621162 181.519974,106.640457 181.249420,109.614929 
	C181.028458,112.043915 182.851242,115.667397 179.341949,116.575653 
	C175.768494,117.500504 171.775482,117.970970 168.553482,114.769165 
	C162.527222,108.780663 156.387436,102.906479 150.303909,96.975471 
	C148.991714,95.696167 147.717773,94.377632 146.178284,92.826431 
z"/>
<path fill="#FFFFFF" opacity="1.000000" stroke="none" 
	d="
M262.918884,97.501343 
	C262.488708,95.175186 264.088654,94.243782 265.220001,93.103577 
	C269.210663,89.081680 273.588318,85.390594 277.193726,81.054016 
	C281.115356,76.337097 285.762238,76.053917 292.427979,77.304947 
	C285.691132,83.990715 279.571350,90.064117 273.381989,96.206566 
	C276.725433,100.500244 280.170837,103.733513 284.027557,106.962379 
	C285.073792,104.317978 284.599976,101.982803 284.631958,99.721405 
	C284.670288,97.012207 285.770996,95.797058 288.529541,95.780510 
	C291.327026,95.763741 292.413361,97.019569 292.343170,99.723961 
	C292.256714,103.054855 292.496368,106.400642 292.280548,109.719551 
	C292.129761,112.038574 293.661926,115.459007 290.702362,116.390892 
	C287.177582,117.500755 283.129639,118.090157 279.929474,114.847824 
	C274.311890,109.156265 268.672699,103.486061 262.918884,97.501343 
z"/>
</svg>
